<svg width="20" height="20" viewBox="0 0 20 20" fill="none" xmlns="http://www.w3.org/2000/svg">
<path d="M11.7445 8.95703L11.1195 11.0404H8.25781L8.8828 8.95703H11.7445Z" fill="#979AA4"/>
<path fill-rule="evenodd" clip-rule="evenodd" d="M2.88836 2.88836C1.66797 4.10874 1.66797 6.07293 1.66797 10.0013C1.66797 13.9296 1.66797 15.8939 2.88836 17.1142C4.10874 18.3346 6.07293 18.3346 10.0013 18.3346C13.9296 18.3346 15.8939 18.3346 17.1142 17.1142C18.3346 15.8939 18.3346 13.9296 18.3346 10.0013C18.3346 6.07293 18.3346 4.10874 17.1142 2.88836C15.8939 1.66797 13.9296 1.66797 10.0013 1.66797C6.07293 1.66797 4.10874 1.66797 2.88836 2.88836ZM9.34755 5.236C9.67822 5.33519 9.8658 5.68362 9.76663 6.01424L9.25797 7.70964H12.1196L12.736 5.65505C12.8352 5.32443 13.1836 5.13682 13.5142 5.236C13.8449 5.33519 14.0325 5.68362 13.9333 6.01424L13.4246 7.70964H15.0013C15.3465 7.70964 15.6263 7.98947 15.6263 8.33463C15.6263 8.6798 15.3465 8.95963 15.0013 8.95963H13.0496L12.4246 11.043H14.168C14.5131 11.043 14.793 11.3228 14.793 11.668C14.793 12.0131 14.5131 12.293 14.168 12.293H12.0496L11.4333 14.3475C11.334 14.6782 10.9856 14.8658 10.6551 14.7666C10.3244 14.6675 10.1368 14.319 10.236 13.9884L10.7446 12.293H7.88298L7.26661 14.3475C7.16743 14.6782 6.81899 14.8658 6.48838 14.7666C6.15775 14.6675 5.97014 14.319 6.06933 13.9884L6.57795 12.293H5.0013C4.65613 12.293 4.3763 12.0131 4.3763 11.668C4.3763 11.3228 4.65613 11.043 5.0013 11.043H6.95295L7.57795 8.95963H5.83463C5.48946 8.95963 5.20963 8.6798 5.20963 8.33463C5.20963 7.98947 5.48946 7.70964 5.83463 7.70964H7.95295L8.5693 5.65505C8.66855 5.32443 9.01697 5.13682 9.34755 5.236Z" fill="#979AA4"/>
</svg>
