<svg width="34" height="27" viewBox="0 0 34 27" fill="none" xmlns="http://www.w3.org/2000/svg">
<path d="M14.5273 24.3434C13.7599 26.631 13.0211 26.0309 12.4072 25.5919C11.2562 24.5638 11.3009 23.9965 11.1157 23.8991C8.27893 25.5284 5.99772 25.2748 3.21849 21.717C4.71945 19.9717 6.23296 20.2907 7.16891 19.3574C4.27538 19.2597 1.78451 17.6813 1.69553 13.1742C3.67474 12.7674 6.56944 13.7187 7.57617 13.9435C5.88548 13.6249 3.10206 12.0469 3.76148 6.74433C5.66304 6.97495 5.77559 6.67986 8.36397 8.60283C7.85532 4.91859 9.97172 3.38947 11.3492 1.19162C12.661 2.44116 13.4511 4.1823 13.2962 5.30967C12.9052 8.10851 10.7179 8.3978 10.0438 10.148C8.98266 12.9224 9.32471 16.0791 10.2895 18.7436C12.0912 23.717 13.9323 23.022 14.5273 24.3434Z" fill="#15B078"/>
<path d="M14.5273 24.3434C13.7599 26.631 13.0211 26.0309 12.4072 25.5919C11.2562 24.5638 11.3009 23.9965 11.1157 23.8991C8.27893 25.5284 5.99772 25.2748 3.21849 21.717C4.71945 19.9717 6.23296 20.2907 7.16891 19.3574C4.27538 19.2597 1.78451 17.6813 1.69553 13.1742C3.67474 12.7674 6.56944 13.7187 7.57617 13.9435C5.88548 13.6249 3.10206 12.0469 3.76148 6.74433C5.66304 6.97495 5.77559 6.67986 8.36397 8.60283C7.85532 4.91859 9.97172 3.38947 11.3492 1.19162C12.661 2.44116 13.4511 4.1823 13.2962 5.30967C12.9052 8.10851 10.7179 8.3978 10.0438 10.148C8.98266 12.9224 9.32471 16.0791 10.2895 18.7436C12.0912 23.717 13.9323 23.022 14.5273 24.3434Z" fill="url(#paint0_radial_1208_30336)" fill-opacity="0.47"/>
<path d="M14.5273 24.3434C13.7599 26.631 13.0211 26.0309 12.4072 25.5919C11.2562 24.5638 11.3009 23.9965 11.1157 23.8991C8.27893 25.5284 5.99772 25.2748 3.21849 21.717C4.71945 19.9717 6.23296 20.2907 7.16891 19.3574C4.27538 19.2597 1.78451 17.6813 1.69553 13.1742C3.67474 12.7674 6.56944 13.7187 7.57617 13.9435C5.88548 13.6249 3.10206 12.0469 3.76148 6.74433C5.66304 6.97495 5.77559 6.67986 8.36397 8.60283C7.85532 4.91859 9.97172 3.38947 11.3492 1.19162C12.661 2.44116 13.4511 4.1823 13.2962 5.30967C12.9052 8.10851 10.7179 8.3978 10.0438 10.148C8.98266 12.9224 9.32471 16.0791 10.2895 18.7436C12.0912 23.717 13.9323 23.022 14.5273 24.3434Z" stroke="url(#paint1_linear_1208_30336)" stroke-width="0.75"/>
<path d="M19.4727 24.3434C20.2401 26.631 20.9789 26.0309 21.5928 25.5919C22.7438 24.5638 22.6991 23.9965 22.8843 23.8991C25.7211 25.5284 28.0023 25.2748 30.7815 21.717C29.2806 19.9717 27.767 20.2907 26.8311 19.3574C29.7246 19.2597 32.2155 17.6813 32.3045 13.1742C30.3253 12.7674 27.4306 13.7187 26.4238 13.9435C28.1145 13.6249 30.8979 12.0469 30.2385 6.74433C28.337 6.97495 28.2244 6.67986 25.636 8.60283C26.1447 4.91859 24.0283 3.38947 22.6508 1.19162C21.339 2.44116 20.5489 4.1823 20.7038 5.30967C21.0948 8.10851 23.2821 8.3978 23.9562 10.148C25.0173 12.9224 24.6753 16.0791 23.7105 18.7436C21.9088 23.717 20.0677 23.022 19.4727 24.3434Z" fill="#15B078"/>
<path d="M19.4727 24.3434C20.2401 26.631 20.9789 26.0309 21.5928 25.5919C22.7438 24.5638 22.6991 23.9965 22.8843 23.8991C25.7211 25.5284 28.0023 25.2748 30.7815 21.717C29.2806 19.9717 27.767 20.2907 26.8311 19.3574C29.7246 19.2597 32.2155 17.6813 32.3045 13.1742C30.3253 12.7674 27.4306 13.7187 26.4238 13.9435C28.1145 13.6249 30.8979 12.0469 30.2385 6.74433C28.337 6.97495 28.2244 6.67986 25.636 8.60283C26.1447 4.91859 24.0283 3.38947 22.6508 1.19162C21.339 2.44116 20.5489 4.1823 20.7038 5.30967C21.0948 8.10851 23.2821 8.3978 23.9562 10.148C25.0173 12.9224 24.6753 16.0791 23.7105 18.7436C21.9088 23.717 20.0677 23.022 19.4727 24.3434Z" fill="url(#paint2_radial_1208_30336)" fill-opacity="0.47"/>
<path d="M19.4727 24.3434C20.2401 26.631 20.9789 26.0309 21.5928 25.5919C22.7438 24.5638 22.6991 23.9965 22.8843 23.8991C25.7211 25.5284 28.0023 25.2748 30.7815 21.717C29.2806 19.9717 27.767 20.2907 26.8311 19.3574C29.7246 19.2597 32.2155 17.6813 32.3045 13.1742C30.3253 12.7674 27.4306 13.7187 26.4238 13.9435C28.1145 13.6249 30.8979 12.0469 30.2385 6.74433C28.337 6.97495 28.2244 6.67986 25.636 8.60283C26.1447 4.91859 24.0283 3.38947 22.6508 1.19162C21.339 2.44116 20.5489 4.1823 20.7038 5.30967C21.0948 8.10851 23.2821 8.3978 23.9562 10.148C25.0173 12.9224 24.6753 16.0791 23.7105 18.7436C21.9088 23.717 20.0677 23.022 19.4727 24.3434Z" stroke="url(#paint3_linear_1208_30336)" stroke-width="0.75"/>
<defs>
<radialGradient id="paint0_radial_1208_30336" cx="0" cy="0" r="1" gradientTransform="matrix(-1.0177 14.929 -8.83886 -0.875916 8.14102 10.1181)" gradientUnits="userSpaceOnUse">
<stop stop-color="#00FCA1"/>
<stop offset="1" stop-color="#00AF70"/>
</radialGradient>
<linearGradient id="paint1_linear_1208_30336" x1="7.30272" y1="0.555792" x2="8.00449" y2="25.6283" gradientUnits="userSpaceOnUse">
<stop stop-color="#0CA874"/>
<stop offset="1" stop-color="#0E7251"/>
</linearGradient>
<radialGradient id="paint2_radial_1208_30336" cx="0" cy="0" r="1" gradientTransform="matrix(1.0177 14.929 8.83886 -0.875916 25.859 10.1181)" gradientUnits="userSpaceOnUse">
<stop stop-color="#00FCA1"/>
<stop offset="1" stop-color="#00AF70"/>
</radialGradient>
<linearGradient id="paint3_linear_1208_30336" x1="26.6973" y1="0.555792" x2="25.9955" y2="25.6283" gradientUnits="userSpaceOnUse">
<stop stop-color="#0CA874"/>
<stop offset="1" stop-color="#0E7251"/>
</linearGradient>
</defs>
</svg>
