<svg width="28" height="28" viewBox="0 0 28 28" fill="none" xmlns="http://www.w3.org/2000/svg">
<g clip-path="url(#clip0_475_15793)">
<path d="M21.4469 9.33398H22.6847C23.6881 9.33398 24.5001 10.146 24.5001 11.1493V22.6865C24.5001 23.6887 23.6881 24.5007 22.6847 24.5007H9.98208C8.97875 24.5007 8.16675 23.6887 8.16675 22.6853V21.0007" stroke="black" stroke-width="1.5" stroke-linecap="round" stroke-linejoin="round"/>
<path d="M4.66794 20.9994H17.8653C18.6458 20.9994 19.3738 20.6097 19.8066 19.9598L20.6629 18.6742C21.1739 17.9077 21.4469 17.007 21.4469 16.0853V6.99935C21.4469 5.71018 20.4028 4.66602 19.1136 4.66602H7.44694C6.15778 4.66602 5.11361 5.71018 5.11361 6.99935V15.2313C5.11361 15.9558 4.94444 16.6699 4.62128 17.3185L3.62494 19.3112C3.23644 20.087 3.80111 20.9994 4.66794 20.9994Z" stroke="black" stroke-width="1.5" stroke-linecap="round" stroke-linejoin="round"/>
<path d="M15.9262 11.1914L12.6444 14.4732L10.675 12.5051" stroke="black" stroke-width="1.5" stroke-linecap="round" stroke-linejoin="round"/>
<path d="M9.77686 3.5V5.83333" stroke="black" stroke-width="1.5" stroke-linecap="round" stroke-linejoin="round"/>
<path d="M16.7769 3.5V5.83333" stroke="black" stroke-width="1.5" stroke-linecap="round" stroke-linejoin="round"/>
</g>
<defs>
<clipPath id="clip0_475_15793">
<rect width="28" height="28" fill="white"/>
</clipPath>
</defs>
</svg>
