<svg width="24" height="24" viewBox="0 0 24 24" fill="none" xmlns="http://www.w3.org/2000/svg">
<path d="M19.3432 3H4.65684C3.74179 3 3 3.74179 3 4.65684V19.3432C3 20.2582 3.74179 21 4.65684 21H19.3432C20.2582 21 21 20.2582 21 19.3432V4.65684C21 3.74179 20.2582 3 19.3432 3Z" stroke="#222222" stroke-width="1.5" stroke-linecap="round" stroke-linejoin="round" vector-effect="non-scaling-stroke"/>
<path d="M21 8H3" stroke="#222222" stroke-width="1.5" stroke-linecap="round" stroke-linejoin="round" vector-effect="non-scaling-stroke"/>
<path d="M17.3031 11.4992C17.3031 11.5268 17.2807 11.5492 17.2531 11.5492C17.2255 11.5492 17.2031 11.5268 17.2031 11.4992C17.2031 11.4716 17.2255 11.4492 17.2531 11.4492" stroke="#222222" stroke-width="1.5" stroke-linecap="round" stroke-linejoin="round" vector-effect="non-scaling-stroke"/>
<path d="M17.25 11.4492V11.4492C17.2776 11.4492 17.3 11.4716 17.3 11.4992V11.4992" stroke="#222222" stroke-width="1.5" stroke-linecap="round" stroke-linejoin="round" vector-effect="non-scaling-stroke"/>
<path d="M13.7953 11.4992C13.7953 11.5268 13.7729 11.5492 13.7453 11.5492C13.7177 11.5492 13.6953 11.5268 13.6953 11.4992C13.6953 11.4716 13.7177 11.4492 13.7453 11.4492" stroke="#222222" stroke-width="1.5" stroke-linecap="round" stroke-linejoin="round" vector-effect="non-scaling-stroke"/>
<path d="M13.75 11.4492V11.4492C13.7776 11.4492 13.8 11.4716 13.8 11.4992V11.4992" stroke="#222222" stroke-width="1.5" stroke-linecap="round" stroke-linejoin="round" vector-effect="non-scaling-stroke"/>
<path d="M10.2953 11.4992C10.2953 11.5268 10.2729 11.5492 10.2453 11.5492C10.2177 11.5492 10.1953 11.5268 10.1953 11.4992C10.1953 11.4716 10.2177 11.4492 10.2453 11.4492" stroke="#222222" stroke-width="1.5" stroke-linecap="round" stroke-linejoin="round" vector-effect="non-scaling-stroke"/>
<path d="M10.25 11.4492V11.4492C10.2776 11.4492 10.3 11.4716 10.3 11.4992V11.4992" stroke="#222222" stroke-width="1.5" stroke-linecap="round" stroke-linejoin="round" vector-effect="non-scaling-stroke"/>
<path d="M6.79531 14.4992C6.79531 14.5268 6.77293 14.5492 6.74531 14.5492C6.7177 14.5492 6.69531 14.5268 6.69531 14.4992C6.69531 14.4716 6.7177 14.4492 6.74531 14.4492" stroke="#222222" stroke-width="1.5" stroke-linecap="round" stroke-linejoin="round" vector-effect="non-scaling-stroke"/>
<path d="M6.75 14.4492V14.4492C6.77761 14.4492 6.8 14.4716 6.8 14.4992" stroke="#222222" stroke-width="1.5" stroke-linecap="round" stroke-linejoin="round" vector-effect="non-scaling-stroke"/>
<path d="M10.2953 14.4992C10.2953 14.5268 10.2729 14.5492 10.2453 14.5492C10.2177 14.5492 10.1953 14.5268 10.1953 14.4992C10.1953 14.4716 10.2177 14.4492 10.2453 14.4492" stroke="#222222" stroke-width="1.5" stroke-linecap="round" stroke-linejoin="round" vector-effect="non-scaling-stroke"/>
<path d="M10.25 14.4492V14.4492C10.2776 14.4492 10.3 14.4716 10.3 14.4992V14.4992" stroke="#222222" stroke-width="1.5" stroke-linecap="round" stroke-linejoin="round" vector-effect="non-scaling-stroke"/>
<path d="M13.7953 14.4992C13.7953 14.5268 13.7729 14.5492 13.7453 14.5492C13.7177 14.5492 13.6953 14.5268 13.6953 14.4992C13.6953 14.4716 13.7177 14.4492 13.7453 14.4492" stroke="#222222" stroke-width="1.5" stroke-linecap="round" stroke-linejoin="round" vector-effect="non-scaling-stroke"/>
<path d="M13.75 14.4492V14.4492C13.7776 14.4492 13.8 14.4716 13.8 14.4992V14.4992" stroke="#222222" stroke-width="1.5" stroke-linecap="round" stroke-linejoin="round" vector-effect="non-scaling-stroke"/>
<path d="M17.3031 14.4992C17.3031 14.5268 17.2807 14.5492 17.2531 14.5492C17.2255 14.5492 17.2031 14.5268 17.2031 14.4992C17.2031 14.4716 17.2255 14.4492 17.2531 14.4492" stroke="#222222" stroke-width="1.5" stroke-linecap="round" stroke-linejoin="round" vector-effect="non-scaling-stroke"/>
<path d="M17.25 14.4492V14.4492C17.2776 14.4492 17.3 14.4716 17.3 14.4992V14.4992" stroke="#222222" stroke-width="1.5" stroke-linecap="round" stroke-linejoin="round" vector-effect="non-scaling-stroke"/>
<path d="M17.3031 17.4992C17.3031 17.5268 17.2807 17.5492 17.2531 17.5492C17.2255 17.5492 17.2031 17.5268 17.2031 17.4992C17.2031 17.4716 17.2255 17.4492 17.2531 17.4492" stroke="#222222" stroke-width="1.5" stroke-linecap="round" stroke-linejoin="round" vector-effect="non-scaling-stroke"/>
<path d="M17.25 17.4492V17.4492C17.2776 17.4492 17.3 17.4716 17.3 17.4992" stroke="#222222" stroke-width="1.5" stroke-linecap="round" stroke-linejoin="round" vector-effect="non-scaling-stroke"/>
<path d="M13.7953 17.4992C13.7953 17.5268 13.7729 17.5492 13.7453 17.5492C13.7177 17.5492 13.6953 17.5268 13.6953 17.4992C13.6953 17.4716 13.7177 17.4492 13.7453 17.4492" stroke="#222222" stroke-width="1.5" stroke-linecap="round" stroke-linejoin="round" vector-effect="non-scaling-stroke"/>
<path d="M13.75 17.4492V17.4492C13.7776 17.4492 13.8 17.4716 13.8 17.4992" stroke="#222222" stroke-width="1.5" stroke-linecap="round" stroke-linejoin="round" vector-effect="non-scaling-stroke"/>
<path d="M10.2953 17.4992C10.2953 17.5268 10.2729 17.5492 10.2453 17.5492C10.2177 17.5492 10.1953 17.5268 10.1953 17.4992C10.1953 17.4716 10.2177 17.4492 10.2453 17.4492" stroke="#222222" stroke-width="1.5" stroke-linecap="round" stroke-linejoin="round" vector-effect="non-scaling-stroke"/>
<path d="M10.25 17.4492V17.4492C10.2776 17.4492 10.3 17.4716 10.3 17.4992" stroke="#222222" stroke-width="1.5" stroke-linecap="round" stroke-linejoin="round" vector-effect="non-scaling-stroke"/>
<path d="M6.79531 17.4992C6.79531 17.5268 6.77293 17.5492 6.74531 17.5492C6.7177 17.5492 6.69531 17.5268 6.69531 17.4992C6.69531 17.4716 6.7177 17.4492 6.74531 17.4492" stroke="#222222" stroke-width="1.5" stroke-linecap="round" stroke-linejoin="round" vector-effect="non-scaling-stroke"/>
<path d="M6.75 17.4492V17.4492C6.77761 17.4492 6.8 17.4716 6.8 17.4992" stroke="#222222" stroke-width="1.5" stroke-linecap="round" stroke-linejoin="round" vector-effect="non-scaling-stroke"/>
</svg>
