<svg width="24" height="24" viewBox="0 0 24 24" fill="none" xmlns="http://www.w3.org/2000/svg">
<path d="M4.60547 3.37891C4.69987 3.51101 4.82261 3.73437 4.83105 4C4.83833 3.77103 4.76148 3.5105 4.50195 3.25H8C9.13827 3.25 10.1821 3.65141 11 4.31934V12C11 12.5523 11.4477 13 12 13C12.5523 13 13 12.5523 13 12V4.31934C13.8179 3.65141 14.8617 3.25 16 3.25H19.498L19.375 3.39062C19.213 3.60335 19.162 3.81226 19.168 4C19.1816 3.57205 19.4959 3.25382 19.5 3.25H19.5029V3.25098L19.501 3.25C19.5013 3.25 19.8183 3.56948 19.832 4C19.8393 3.77114 19.7622 3.51135 19.5029 3.25098C20.744 3.25223 21.7498 4.25767 21.75 5.49902V17.5C21.75 18.7402 20.7461 19.747 19.5059 19.75H15.2393C14.1519 19.7484 13.1569 20.3623 12.6709 21.335C12.6685 21.3398 12.6646 21.3439 12.6621 21.3486C12.6517 21.3684 12.6391 21.3866 12.627 21.4053C12.6163 21.4218 12.6065 21.4386 12.5947 21.4541C12.5821 21.4706 12.5677 21.4855 12.5537 21.501C12.5399 21.5163 12.5267 21.5319 12.5117 21.5459C12.4928 21.5636 12.4719 21.579 12.4512 21.5947C12.44 21.6032 12.4296 21.6123 12.418 21.6201C12.399 21.6329 12.3786 21.6432 12.3584 21.6543C12.3405 21.6641 12.3234 21.6753 12.3047 21.6836C12.2877 21.6912 12.2696 21.6958 12.252 21.7021C12.2299 21.7101 12.2083 21.7188 12.1855 21.7246C12.1809 21.7258 12.1766 21.7284 12.1719 21.7295C12.158 21.7327 12.1437 21.7329 12.1299 21.7354C12.1072 21.7394 12.0846 21.7432 12.0615 21.7451C12.0409 21.7468 12.0205 21.7461 12 21.7461C11.9792 21.7461 11.9584 21.7469 11.9375 21.7451L11.8281 21.7295C11.8231 21.7283 11.8184 21.7259 11.8135 21.7246C11.7907 21.7188 11.7691 21.7101 11.7471 21.7021C11.7294 21.6958 11.7113 21.6912 11.6943 21.6836C11.6757 21.6753 11.6586 21.6641 11.6406 21.6543C11.6204 21.6432 11.6 21.6329 11.5811 21.6201C11.5695 21.6123 11.559 21.6032 11.5479 21.5947C11.5271 21.579 11.5062 21.5636 11.4873 21.5459C11.4724 21.5319 11.4591 21.5163 11.4453 21.501C11.4314 21.4855 11.4169 21.4706 11.4043 21.4541C11.3925 21.4386 11.3827 21.4218 11.3721 21.4053C11.36 21.3866 11.3473 21.3684 11.3369 21.3486C11.3345 21.344 11.3315 21.3397 11.3291 21.335C10.8431 20.3623 9.84811 19.7484 8.76074 19.75H4.49902C3.33455 19.7498 2.37694 18.8646 2.26172 17.7305L2.25 17.5029C2.51051 17.7625 2.77102 17.8393 3 17.832C2.57091 17.8184 2.25211 17.5034 2.25 17.501V17.5C2.25 17.4997 2.56946 17.1816 3 17.168C2.77101 17.1607 2.51051 17.2385 2.25 17.498V5.49902C2.2502 4.258 3.25543 3.25276 4.49609 3.25098C4.23726 3.51118 4.15973 3.77129 4.16699 4C4.17543 3.73428 4.29914 3.511 4.39355 3.37891L4.49902 3.25L4.49609 3.25098L4.49707 3.25H4.5L4.60547 3.37891Z" fill="#222222"/>
</svg>
