<svg width="28" height="28" viewBox="0 0 28 28" fill="none" xmlns="http://www.w3.org/2000/svg">
<g clip-path="url(#clip0_475_15868)">
<path d="M4.0775 15.71L5.47167 17.5347L5.77267 19.8062C5.9395 21.0662 6.93 22.0579 8.19 22.2259L10.4673 22.5304L12.2908 23.9234C13.3 24.6945 14.6988 24.6945 15.708 23.9234L17.5327 22.5292H17.5303L19.803 22.2282C21.063 22.0614 22.0547 21.0709 22.2227 19.8109L22.526 17.5335C22.526 17.5347 23.2307 16.6119 23.9202 15.71C24.6913 14.7009 24.6902 13.302 23.9202 12.2929L22.5295 10.4659L22.2285 8.19437C22.0617 6.93437 21.0712 5.94271 19.8112 5.77471L17.5327 5.47138L15.7092 4.07837C14.7 3.30721 13.3012 3.30721 12.292 4.07837L10.4673 5.47254H10.4697L8.19583 5.77471C6.93583 5.94154 5.94417 6.93204 5.77617 8.19204L5.47167 10.4682C5.47167 10.467 4.767 11.3899 4.0775 12.2917C3.3075 13.2997 3.3075 14.7009 4.0775 15.71Z" stroke="black" stroke-width="1.5" stroke-linecap="round" stroke-linejoin="round"/>
<path d="M15.5377 11.084C16.8583 11.084 17.7438 12.2787 17.7438 13.3917C17.7438 15.718 14.7408 17.5007 14 17.5007C13.2592 17.5007 10.2573 15.718 10.2573 13.3917C10.2573 12.2787 11.1428 11.084 12.4635 11.084C13.2183 11.084 13.713 11.4468 14.0012 11.7712C14.2882 11.4468 14.7828 11.084 15.5377 11.084Z" stroke="black" stroke-width="1.5" stroke-linecap="round" stroke-linejoin="round"/>
</g>
<defs>
<clipPath id="clip0_475_15868">
<rect width="28" height="28" fill="white"/>
</clipPath>
</defs>
</svg>
