<svg width="24" height="24" viewBox="0 0 24 24" fill="none" xmlns="http://www.w3.org/2000/svg">
<path d="M9.89844 14.0984L14.0984 9.89844" stroke="#222222" stroke-width="1.5" stroke-linecap="round" stroke-linejoin="round" vector-effect="non-scaling-stroke"/>
<path d="M4 4.778V19.5C4 20.243 4.782 20.727 5.447 20.394L6.218 20.008C6.5 19.867 6.831 19.867 7.112 20.008L8.885 20.894C9.166 21.035 9.498 21.035 9.779 20.894L11.552 20.008C11.833 19.867 12.165 19.867 12.446 20.008L14.219 20.894C14.501 21.035 14.832 21.035 15.114 20.894L16.885 20.008C17.167 19.867 17.498 19.867 17.78 20.008L18.552 20.394C19.218 20.727 20 20.243 20 19.5V4.778C20 3.796 19.204 3 18.222 3H5.778C4.796 3 4 3.796 4 4.778V4.778Z" stroke="#222222" stroke-width="1.5" stroke-linecap="round" stroke-linejoin="round" vector-effect="non-scaling-stroke"/>
<circle cx="10" cy="10" r="1" fill="#222222"/>
<circle cx="14" cy="14" r="1" fill="#222222"/>
</svg>
