<svg width="24" height="24" viewBox="0 0 24 24" fill="none" xmlns="http://www.w3.org/2000/svg">
<path d="M6.5 11.997C6.5 11.722 6.275 11.497 6 11.5C5.725 11.5 5.5 11.725 5.5 12C5.5 12.275 5.725 12.5 6 12.5C6.275 12.5 6.5 12.275 6.5 11.997Z" fill="#222222" stroke="#222222" stroke-width="1.5" stroke-linecap="round" stroke-linejoin="round" vector-effect="non-scaling-stroke"/>
<path d="M12.5 11.997C12.5 11.722 12.275 11.497 12 11.5C11.725 11.5 11.5 11.725 11.5 12C11.5 12.275 11.725 12.5 12 12.5C12.275 12.5 12.5 12.275 12.5 11.997Z" fill="#222222" stroke="#222222" stroke-width="1.5" stroke-linecap="round" stroke-linejoin="round" vector-effect="non-scaling-stroke"/>
<path d="M18.5 11.997C18.5 11.722 18.275 11.497 18 11.5C17.725 11.5 17.5 11.725 17.5 12C17.5 12.275 17.725 12.5 18 12.5C18.275 12.5 18.5 12.275 18.5 11.997Z" fill="#222222" stroke="#222222" stroke-width="1.5" stroke-linecap="round" stroke-linejoin="round" vector-effect="non-scaling-stroke"/>
</svg>
