<svg width="28" height="28" viewBox="0 0 28 28" fill="none" xmlns="http://www.w3.org/2000/svg">
<path d="M20.4168 22.9688H19.1844C18.8508 22.9688 18.521 23.0403 18.2173 23.1786L13.3088 25.4141" stroke="black" stroke-width="1.5" stroke-linecap="round" stroke-linejoin="round"/>
<path d="M12.2523 15.9448C11.9604 15.7719 11.6341 15.6652 11.2965 15.6321C10.9588 15.5991 10.6181 15.6405 10.2982 15.7534L7.61133 16.7206" stroke="black" stroke-width="1.5" stroke-linecap="round" stroke-linejoin="round"/>
<path d="M15.1124 18.5829L13.3315 19.4138C13.018 19.56 12.6683 19.6103 12.3263 19.5586C11.9843 19.507 11.6652 19.3556 11.4088 19.1233C11.2095 18.9426 11.0544 18.7184 10.9554 18.4682C10.8564 18.218 10.8163 17.9484 10.838 17.6802C10.8598 17.412 10.9429 17.1523 11.0809 16.9213C11.2189 16.6903 11.4081 16.4941 11.634 16.3478L14.6789 14.3751C15.0035 14.1648 15.3753 14.0384 15.7609 14.0075C16.1464 13.9765 16.5337 14.0419 16.8877 14.1978L20.4167 15.7512" stroke="black" stroke-width="1.5" stroke-linecap="round" stroke-linejoin="round"/>
<path d="M15.1125 18.582L16.1109 19.4553C16.3579 19.6714 16.5566 19.9372 16.6939 20.2353C16.8313 20.5334 16.9042 20.8571 16.9079 21.1853C16.9116 21.5135 16.846 21.8388 16.7154 22.1399C16.5848 22.4411 16.3922 22.7113 16.15 22.9329L13.8327 25.0538C13.4038 25.4462 12.8439 25.6645 12.2626 25.6658C11.6813 25.6671 11.1204 25.4514 10.6898 25.0609L9.07391 23.5954C8.69 23.2538 8.20395 23.0487 7.69141 23.012" stroke="black" stroke-width="1.5" stroke-linecap="round" stroke-linejoin="round"/>
<path d="M3.5 15.166H6.41667C6.72609 15.166 7.02283 15.2889 7.24162 15.5077C7.46042 15.7265 7.58333 16.0233 7.58333 16.3327V23.3327C7.58333 23.6421 7.46042 23.9388 7.24162 24.1576C7.02283 24.3764 6.72609 24.4993 6.41667 24.4993H3.5" stroke="black" stroke-width="1.5" stroke-linecap="round" stroke-linejoin="round"/>
<path d="M24.5001 24.4993H21.5834C21.274 24.4993 20.9772 24.3764 20.7585 24.1576C20.5397 23.9388 20.4167 23.6421 20.4167 23.3327V16.3327C20.4167 16.0233 20.5397 15.7265 20.7585 15.5077C20.9772 15.2889 21.274 15.166 21.5834 15.166H24.5001" stroke="black" stroke-width="1.5" stroke-linecap="round" stroke-linejoin="round"/>
<path d="M24.5 11.6673V4.95898C24.5 4.26279 24.2234 3.59511 23.7312 3.10283C23.2389 2.61055 22.5712 2.33398 21.875 2.33398H6.125C5.42881 2.33398 4.76113 2.61055 4.26884 3.10283C3.77656 3.59511 3.5 4.26279 3.5 4.95898V11.6673" stroke="black" stroke-width="1.5" stroke-linecap="round" stroke-linejoin="round"/>
<path d="M7.875 8.45898L9.33333 9.91732" stroke="black" stroke-width="1.5" stroke-linecap="round" stroke-linejoin="round"/>
<path d="M11.6666 7.58398L9.33325 9.91732" stroke="black" stroke-width="1.5" stroke-linecap="round" stroke-linejoin="round"/>
<path d="M14.5833 9.33398H19.8333" stroke="black" stroke-width="1.5" stroke-linecap="round" stroke-linejoin="round"/>
</svg>
