<svg width="28" height="28" viewBox="0 0 28 28" fill="none" xmlns="http://www.w3.org/2000/svg">
<path d="M13.9999 13.9993C15.6107 13.9993 16.9166 12.6935 16.9166 11.0827C16.9166 9.47185 15.6107 8.16602 13.9999 8.16602C12.3891 8.16602 11.0833 9.47185 11.0833 11.0827C11.0833 12.6935 12.3891 13.9993 13.9999 13.9993Z" stroke="black" stroke-width="1.5" stroke-linecap="round" stroke-linejoin="round"/>
<path d="M8.75 18.666C8.9766 18.1461 9.34994 17.7037 9.82428 17.3928C10.2986 17.082 10.8533 16.9163 11.4204 16.916H16.5796C17.1467 16.9163 17.7014 17.082 18.1757 17.3928C18.6501 17.7037 19.0234 18.1461 19.25 18.666" stroke="black" stroke-width="1.5" stroke-linecap="round" stroke-linejoin="round"/>
<path d="M14 19.8327V16.916" stroke="black" stroke-width="1.5" stroke-linecap="round" stroke-linejoin="round"/>
<path d="M5.07527 19.511C3.68964 17.3318 3.15797 14.7174 3.58238 12.1701C4.00679 9.62279 5.35735 7.32207 7.37469 5.70982C9.39202 4.09757 11.9339 3.28747 14.5121 3.43511C17.0903 3.58275 19.5231 4.67771 21.3432 6.5097C23.1633 8.34169 24.2424 10.7815 24.3733 13.3607C24.5041 15.9398 23.6775 18.4763 22.0522 20.4831C20.4268 22.4899 18.1174 23.8255 15.5673 24.2333C13.0173 24.6411 10.4065 24.0925 8.23633 22.6927L5.24383 23.1927C5.15221 23.208 5.05826 23.2012 4.9698 23.1729C4.88133 23.1445 4.80091 23.0955 4.73523 23.0298C4.66954 22.9641 4.6205 22.8837 4.59216 22.7952C4.56383 22.7068 4.55704 22.6128 4.57235 22.5212L5.07527 19.511Z" stroke="black" stroke-width="1.5" stroke-linecap="round" stroke-linejoin="round"/>
</svg>
