<svg width="24" height="24" viewBox="0 0 24 24" fill="none" xmlns="http://www.w3.org/2000/svg">
<path d="M12 21.5C17.2467 21.5 21.5 17.2467 21.5 12C21.5 6.75329 17.2467 2.5 12 2.5C6.75329 2.5 2.5 6.75329 2.5 12C2.5 17.2467 6.75329 21.5 12 21.5Z" stroke="#222222" stroke-width="1.5" stroke-linecap="round" stroke-linejoin="round" vector-effect="non-scaling-stroke"/>
<path d="M12 7.5V8.5" stroke="#222222" stroke-width="1.5" stroke-linecap="round" stroke-linejoin="round" vector-effect="non-scaling-stroke"/>
<path d="M12 16.5V15.5" stroke="#222222" stroke-width="1.5" stroke-linecap="round" stroke-linejoin="round" vector-effect="non-scaling-stroke"/>
<path d="M9.8587 14.2504C10.052 14.6471 10.3586 14.9777 10.7398 15.2002C11.1209 15.4227 11.5595 15.5271 12 15.5004C12.5289 15.5581 13.0595 15.4077 13.4795 15.0811C13.8994 14.7545 14.1758 14.2772 14.25 13.7504C14.25 13.3838 14.123 13.0285 13.8906 12.745C13.6582 12.4615 13.3347 12.2673 12.9753 12.1954L11.0247 11.8053C10.6653 11.7334 10.3418 11.5392 10.1094 11.2557C9.87701 10.9722 9.75 10.617 9.75 10.2504C9.82423 9.72355 10.1006 9.24629 10.5205 8.91965C10.9405 8.59301 11.4711 8.44264 12 8.50038C12.4405 8.47363 12.8791 8.5781 13.2602 8.8006C13.6414 9.0231 13.948 9.35363 14.1413 9.75038" stroke="#222222" stroke-width="1.5" stroke-linecap="round" stroke-linejoin="round" vector-effect="non-scaling-stroke"/>
</svg>
