<svg width="28" height="28" viewBox="0 0 28 28" fill="none" xmlns="http://www.w3.org/2000/svg">
<g clip-path="url(#clip0_475_15912)">
<path d="M5.83325 22.166L12.8333 15.166" stroke="black" stroke-width="1.5" stroke-linecap="round" stroke-linejoin="round"/>
<path d="M5.83325 3.5V4.08333" stroke="black" stroke-width="1.5" stroke-linecap="round" stroke-linejoin="round"/>
<path d="M5.83325 8.16732V7.58398" stroke="black" stroke-width="1.5" stroke-linecap="round" stroke-linejoin="round"/>
<path d="M8.16659 5.83398H7.58325" stroke="black" stroke-width="1.5" stroke-linecap="round" stroke-linejoin="round"/>
<path d="M3.5 5.83398H4.08333" stroke="black" stroke-width="1.5" stroke-linecap="round" stroke-linejoin="round"/>
<path d="M22.1667 19.834V20.4173" stroke="black" stroke-width="1.5" stroke-linecap="round" stroke-linejoin="round"/>
<path d="M22.1667 24.4993V23.916" stroke="black" stroke-width="1.5" stroke-linecap="round" stroke-linejoin="round"/>
<path d="M24.5001 22.166H23.9167" stroke="black" stroke-width="1.5" stroke-linecap="round" stroke-linejoin="round"/>
<path d="M19.8333 22.166H20.4166" stroke="black" stroke-width="1.5" stroke-linecap="round" stroke-linejoin="round"/>
<path d="M11.6667 23.3333L14.0001 21" stroke="black" stroke-width="1.5" stroke-linecap="round" stroke-linejoin="round"/>
<path d="M4.66675 16.3333L7.00008 14" stroke="black" stroke-width="1.5" stroke-linecap="round" stroke-linejoin="round"/>
<path d="M17.3993 14.6684L16.4348 11.5658L13.3322 10.6014C13.2058 10.5621 13.093 10.4883 13.0064 10.3882C12.9198 10.2881 12.8629 10.1658 12.8422 10.0351C12.8215 9.9044 12.8378 9.77051 12.8892 9.64858C12.9407 9.52664 13.0252 9.42153 13.1332 9.34512L15.786 7.46912L15.7445 4.22027C15.7428 4.08795 15.7781 3.95779 15.8465 3.84451C15.915 3.73123 16.0137 3.63935 16.1316 3.57926C16.2495 3.51918 16.3819 3.49329 16.5138 3.50451C16.6456 3.51573 16.7717 3.56363 16.8778 3.64277L19.4817 5.58597L22.5587 4.54254C22.684 4.50004 22.8187 4.49346 22.9476 4.52353C23.0764 4.55359 23.1943 4.61912 23.2879 4.71269C23.3815 4.80626 23.447 4.92415 23.4771 5.05302C23.5071 5.18189 23.5005 5.3166 23.4581 5.44192L22.4146 8.51889L24.3578 11.1228C24.437 11.2289 24.4849 11.355 24.4961 11.4868C24.5073 11.6187 24.4814 11.7511 24.4213 11.869C24.3612 11.9869 24.2694 12.0856 24.1561 12.1541C24.0428 12.2225 23.9126 12.2578 23.7803 12.2561L20.5315 12.2146L18.6555 14.8673C18.5791 14.9754 18.474 15.0599 18.3521 15.1113C18.2302 15.1627 18.0963 15.179 17.9656 15.1583C17.8349 15.1376 17.7126 15.0808 17.6125 14.9942C17.5124 14.9076 17.4386 14.7948 17.3993 14.6684Z" stroke="black" stroke-width="1.5" stroke-linecap="round" stroke-linejoin="round"/>
</g>
<defs>
<clipPath id="clip0_475_15912">
<rect width="28" height="28" fill="white"/>
</clipPath>
</defs>
</svg>
