<svg width="24" height="24" viewBox="0 0 24 24" fill="none" xmlns="http://www.w3.org/2000/svg">
<path d="M11.082 8.95158V8.95158C6.196 9.503 2.50256 13.6346 2.5 18.5516V19.1636H2.5C4.62349 16.6055 7.75786 15.1019 11.082 15.0466V18.2736V18.2733C11.082 18.9482 11.6291 19.4953 12.304 19.4953C12.5786 19.4953 12.8452 19.4028 13.0608 19.2328L21.0508 12.9238V12.9238C21.5622 12.5207 21.65 11.7794 21.247 11.268C21.1895 11.1951 21.1237 11.1292 21.0508 11.0718L13.0608 4.76276V4.76276C12.531 4.34468 11.7626 4.43525 11.3445 4.96505C11.1744 5.18061 11.0818 5.44717 11.0818 5.72176L11.082 8.95158Z" stroke="#222222" stroke-width="1.5" stroke-linecap="round" stroke-linejoin="round" vector-effect="non-scaling-stroke"/>
</svg>
