<svg width="24" height="24" viewBox="0 0 24 24" fill="none" xmlns="http://www.w3.org/2000/svg">
<path d="M7.7328 20.829H7.7328C6.9984 21.2123 6.09229 20.9277 5.70895 20.1933C5.5556 19.8996 5.50386 19.5633 5.5618 19.237L6.3708 14.6L2.9648 11.336V11.336C2.36528 10.7642 2.34276 9.81477 2.91448 9.21526C3.14782 8.97058 3.45697 8.81191 3.7918 8.76498L8.5208 8.08898L10.6558 3.82998V3.82998C11.0237 3.08771 11.9236 2.78419 12.6659 3.15206C12.9599 3.29779 13.1981 3.53593 13.3438 3.82998L15.4788 8.08898L20.2078 8.76498V8.76498C21.0282 8.87997 21.6001 9.63826 21.4851 10.4587C21.4381 10.7935 21.2795 11.1026 21.0348 11.336L17.6288 14.6L18.4378 19.238V19.238C18.5826 20.0536 18.0388 20.8323 17.2232 20.9771C16.8969 21.0351 16.5606 20.9833 16.2668 20.83L11.9998 18.625L7.7328 20.829Z" stroke="#333333" stroke-width="1.5" stroke-linecap="round" stroke-linejoin="round"/>
</svg>
