<svg width="24" height="24" viewBox="0 0 24 24" fill="none" xmlns="http://www.w3.org/2000/svg">
<path d="M14.9944 8.62419V8.99919C14.9944 10.6492 13.6444 11.9992 11.9944 11.9992L11.9844 11.9982C10.3244 11.9882 8.98438 10.6482 8.98438 8.99819V8.99719V8.61719" stroke="#222222" stroke-width="1.5" stroke-linecap="round" stroke-linejoin="round"/>
<path d="M14.9964 8.62392V8.99892C14.9964 10.6489 16.3364 11.9889 17.9964 11.9889H18.2364H18.2264C19.7364 11.9789 20.9764 10.7489 20.9764 9.22892C20.9764 8.81892 20.8564 8.41892 20.6464 8.06892L18.2464 4.06892C17.8364 3.38892 17.1064 2.96892 16.3164 2.96892H7.60637C6.80637 2.95892 6.07637 3.37892 5.67637 4.05892L3.27637 8.04892V8.03892C3.06637 8.37892 2.94637 8.77892 2.94637 9.18892H2.94537V9.17893C2.93537 10.6889 4.17537 11.9289 5.69537 11.9289H5.93537L5.92537 11.9279C7.57537 11.9279 8.92537 10.5779 8.92537 8.92792V8.54792" stroke="#222222" stroke-width="1.5" stroke-linecap="round" stroke-linejoin="round"/>
<path d="M19.8694 11.4585V18.7385C19.8694 19.9785 18.8594 20.9885 17.6194 20.9885H6.36938L6.35938 20.9875C5.10938 20.9775 4.10938 19.9775 4.10938 18.7275V11.4375" stroke="#222222" stroke-width="1.5" stroke-linecap="round" stroke-linejoin="round"/>
<path d="M13.6847 16.8398H10.3047" stroke="#222222" stroke-width="1.5" stroke-linecap="round" stroke-linejoin="round"/>
</svg>
