<svg width="24" height="24" viewBox="0 0 24 24" fill="none" xmlns="http://www.w3.org/2000/svg">
<path d="M19 21C20.3807 21 21.5 19.8807 21.5 18.5C21.5 17.1193 20.3807 16 19 16C17.6193 16 16.5 17.1193 16.5 18.5C16.5 19.8807 17.6193 21 19 21Z" stroke="#333333" stroke-width="1.5" stroke-linecap="round" stroke-linejoin="round"/>
<path d="M10.8848 5.5H16.5C17.163 5.5 17.7989 5.76339 18.2678 6.23223C18.7366 6.70107 19 7.33696 19 8V16" stroke="#333333" stroke-width="1.5" stroke-linecap="round" stroke-linejoin="round"/>
<path d="M12.8848 7.5L10.8848 5.5" stroke="#333333" stroke-width="1.5" stroke-linecap="round" stroke-linejoin="round"/>
<path d="M12.8848 3.5L10.8848 5.5" stroke="#333333" stroke-width="1.5" stroke-linecap="round" stroke-linejoin="round"/>
<path d="M5 8C6.38071 8 7.5 6.88071 7.5 5.5C7.5 4.11929 6.38071 3 5 3C3.61929 3 2.5 4.11929 2.5 5.5C2.5 6.88071 3.61929 8 5 8Z" stroke="#333333" stroke-width="1.5" stroke-linecap="round" stroke-linejoin="round"/>
<path d="M13.1152 18.5H7.5C6.83696 18.5 6.20107 18.2366 5.73223 17.7678C5.26339 17.2989 5 16.663 5 16V8" stroke="#333333" stroke-width="1.5" stroke-linecap="round" stroke-linejoin="round"/>
<path d="M11.1152 16.5L13.1152 18.5" stroke="#333333" stroke-width="1.5" stroke-linecap="round" stroke-linejoin="round"/>
<path d="M11.1152 20.5L13.1152 18.5" stroke="#333333" stroke-width="1.5" stroke-linecap="round" stroke-linejoin="round"/>
</svg>
