<svg xmlns="http://www.w3.org/2000/svg" viewBox="0 0 24 24"><defs><style>.a{fill:none;stroke:#323232;stroke-linecap:round;stroke-linejoin:round;stroke-width:1.5px;}</style></defs><line class="a" x1="3" y1="20" x2="8.5468" y2="14.4532"/><path class="a" d="M9.64348,8.03487,4.904,8.49829a1,1,0,0,0-.60979,1.70236l8.5051,8.50511a1,1,0,0,0,1.70236-.6098l.46342-4.73944a1,1,0,0,1,.28814-.60979l1.57137-1.57137a1,1,0,0,1,.41235-.24846l3.05727-.94306a1,1,0,0,0,.41234-1.66268L14.67884,2.2934a1,1,0,0,0-1.66268.41234L12.0731,5.763a.99992.99992,0,0,1-.24846.41234L10.25327,7.74673A1,1,0,0,1,9.64348,8.03487Z"/></svg>