<svg width="24" height="24" viewBox="0 0 24 24" fill="none" xmlns="http://www.w3.org/2000/svg">
<path d="M5.74002 11.26L2.80002 8.32002C2.39999 7.91945 2.39999 7.27058 2.80002 6.87002L5.87002 3.80002C6.27058 3.39999 6.91945 3.39999 7.32002 3.80002L9.26002 5.74002" stroke="#323232" stroke-width="1.5" stroke-linecap="round" stroke-linejoin="round"/>
<path d="M18.26 14.7422L20.2 16.6822C20.6 17.0828 20.6 17.7316 20.2 18.1322L17.13 21.2022C16.7294 21.6022 16.0806 21.6022 15.68 21.2022L12.74 18.2622" stroke="#323232" stroke-width="1.5" stroke-linecap="round" stroke-linejoin="round"/>
<path d="M11.7663 9.10156L4.14848 16.7194C3.588 17.2786 3.36871 18.0944 3.57333 18.8593C3.77795 19.6241 4.37534 20.2215 5.14017 20.4261C5.905 20.6307 6.72088 20.4114 7.28007 19.851L14.8979 12.2332" stroke="#323232" stroke-width="1.5" stroke-linecap="round" stroke-linejoin="round"/>
<path d="M11.7664 9.10136C11.3334 7.83289 11.4303 6.44341 12.035 5.24726C12.6398 4.05112 13.7013 3.14939 14.9795 2.74607C15.6206 2.53294 16.2994 2.457 16.9717 2.52317C17.3494 2.57361 17.6654 2.83472 17.7861 3.19611C17.9068 3.55751 17.8112 3.9561 17.5396 4.22337L15.7354 6.02751C15.6416 6.12127 15.5889 6.24844 15.5889 6.38106C15.5889 6.51367 15.6416 6.64085 15.7354 6.7346L17.2647 8.26396C17.46 8.45921 17.7766 8.45921 17.9719 8.26396L19.7759 6.45982C20.0432 6.18826 20.4418 6.09261 20.8032 6.21331C21.1646 6.334 21.4257 6.64997 21.4761 7.02763C21.5424 7.69998 21.4664 8.37874 21.2532 9.01982C20.85 10.298 19.9483 11.3596 18.7521 11.9644C17.556 12.5691 16.1665 12.666 14.898 12.233" stroke="#323232" stroke-width="1.5" stroke-linecap="round" stroke-linejoin="round"/>
</svg>
