<svg width="24" height="24" viewBox="0 0 24 24" fill="none" xmlns="http://www.w3.org/2000/svg">
<path d="M20.7926 9.52221C21.5826 10.3122 21.5826 11.5931 20.7926 12.3832C20.0026 13.1732 18.7217 13.1732 17.9316 12.3832C17.1416 11.5931 17.1416 10.3122 17.9316 9.52221C18.7217 8.73218 20.0026 8.73218 20.7926 9.52221" stroke="#323232" stroke-width="1.5" stroke-linecap="round" stroke-linejoin="round"/>
<path d="M14.2026 5.91236C15.4191 7.12884 15.4191 9.10115 14.2026 10.3176C12.9862 11.5341 11.0139 11.5341 9.79737 10.3176C8.58089 9.10116 8.58089 7.12885 9.79737 5.91236C11.0138 4.69588 12.9862 4.69588 14.2026 5.91236" stroke="#323232" stroke-width="1.5" stroke-linecap="round" stroke-linejoin="round"/>
<path d="M6.06846 9.52221C6.85849 10.3122 6.85849 11.5931 6.06846 12.3832C5.27843 13.1732 3.99754 13.1732 3.20751 12.3832C2.41748 11.5931 2.41748 10.3122 3.20751 9.52221C3.99754 8.73218 5.27843 8.73218 6.06846 9.52221" stroke="#323232" stroke-width="1.5" stroke-linecap="round" stroke-linejoin="round"/>
<path d="M23 19.0022V17.9062C23 16.5252 21.881 15.4062 20.5 15.4062H19.699" stroke="#323232" stroke-width="1.5" stroke-linecap="round" stroke-linejoin="round"/>
<path d="M1 19.0022V17.9062C1 16.5252 2.119 15.4062 3.5 15.4062H4.301" stroke="#323232" stroke-width="1.5" stroke-linecap="round" stroke-linejoin="round"/>
<path d="M17.3389 18.9994V17.3984C17.3389 15.4654 15.7719 13.8984 13.8389 13.8984H10.1599C8.22691 13.8984 6.65991 15.4654 6.65991 17.3984V18.9994" stroke="#323232" stroke-width="1.5" stroke-linecap="round" stroke-linejoin="round"/>
</svg>
