<svg width="24" height="24" viewBox="0 0 24 24" fill="none" xmlns="http://www.w3.org/2000/svg">
<path d="M2 19C2 16.8 3.8 15 6 15H10C12.2 15 14 16.8 14 19" stroke="#323232" stroke-width="1.5" stroke-linecap="round" stroke-linejoin="round"/>
<path d="M10.4999 5.99722C11.8999 7.39722 11.8999 9.59722 10.4999 10.8972C9.09993 12.1972 6.89993 12.2972 5.59993 10.8972C4.29993 9.49722 4.19993 7.39722 5.49993 5.99722C6.79993 4.59722 9.09993 4.69722 10.4999 5.99722" stroke="#323232" stroke-width="1.5" stroke-linecap="round" stroke-linejoin="round"/>
<path d="M16 14H19C20.7 14 22 15.3 22 17" stroke="#323232" stroke-width="1.5" stroke-linecap="round" stroke-linejoin="round"/>
<path d="M19.2999 6.69844C20.2999 7.69844 20.2999 9.29844 19.2999 10.1984C18.2999 11.0984 16.6999 11.1984 15.7999 10.1984C14.8999 9.19844 14.7999 7.59844 15.7999 6.69844C16.6999 5.79844 18.2999 5.79844 19.2999 6.69844" stroke="#323232" stroke-width="1.5" stroke-linecap="round" stroke-linejoin="round"/>
</svg>
