<svg width="24" height="24" viewBox="0 0 24 24" fill="none" xmlns="http://www.w3.org/2000/svg">
<path d="M17 18C17 17.2044 16.7366 16.4413 16.2678 15.8787C15.7989 15.3161 15.163 15 14.5 15H9.5C8.83696 15 8.20107 15.3161 7.73223 15.8787C7.26339 16.4413 7 17.2044 7 18" stroke="#222222" stroke-width="1.5" stroke-linecap="round" stroke-linejoin="round"/>
<path d="M12 12C13.6569 12 15 10.6569 15 9C15 7.34315 13.6569 6 12 6C10.3431 6 9 7.34315 9 9C9 10.6569 10.3431 12 12 12Z" stroke="#222222" stroke-width="1.5" stroke-linecap="round" stroke-linejoin="round"/>
<path d="M16.4444 22C17.9179 22 19.3309 21.4147 20.3728 20.3728C21.4147 19.3309 22 17.9179 22 16.4444V7.55556C22 6.08213 21.4147 4.66905 20.3728 3.62718C19.3309 2.58532 17.9179 2 16.4444 2H7.55556C6.08213 2 4.66905 2.58532 3.62718 3.62718C2.58532 4.66905 2 6.08213 2 7.55556V16.4444C2 17.9179 2.58532 19.3309 3.62718 20.3728C4.66905 21.4147 6.08213 22 7.55556 22H16.4444Z" stroke="#222222" stroke-width="1.5" stroke-linecap="round" stroke-linejoin="round"/>
</svg>
