<svg width="28" height="28" viewBox="0 0 28 28" fill="none" xmlns="http://www.w3.org/2000/svg">
<g clip-path="url(#clip0_475_15709)">
<path d="M14.2513 4.65749L6.55938 6.23866V6.23866C5.42407 6.46888 4.69034 7.57585 4.92056 8.71116C4.99916 9.09877 5.18574 9.45627 5.45879 9.74239L10.8649 15.4379V15.4379C12.1159 16.7522 13.9553 17.33 15.7331 16.9671L23.425 15.3859L23.425 15.3859C24.5603 15.1557 25.294 14.0487 25.0638 12.9134C24.9852 12.5258 24.7986 12.1683 24.5255 11.8822L19.1194 6.18665L19.1194 6.18665C17.8684 4.87239 16.0291 4.29461 14.2513 4.65749L14.2513 4.65749Z" stroke="#333333" stroke-width="1.5" stroke-linecap="round" stroke-linejoin="round"/>
<path d="M24.9988 13.9513C24.9988 13.9513 23.9365 15.9562 24.0867 17.4971C24.237 19.0381 24.7633 19.6284 24.7633 19.6284" stroke="#333333" stroke-width="1.5" stroke-linecap="round" stroke-linejoin="round"/>
<path d="M7.62109 12.0078L6.25822 16.3465L6.25821 16.3466C5.94208 17.3513 6.14997 18.4475 6.81199 19.2667L8.15874 20.9349L8.15873 20.9349C9.75197 22.907 12.3731 23.7303 14.8078 23.0235L16.8666 22.425V22.425C17.8787 22.1321 18.6768 21.3518 18.9925 20.3466L20.3548 16.0097" stroke="#333333" stroke-width="1.5" stroke-linecap="round" stroke-linejoin="round"/>
<path d="M24.0318 20.2671C23.8501 19.8344 23.9936 19.3336 24.377 19.0629L24.5055 18.9721C24.8889 18.7015 25.4089 18.7338 25.7558 19.0499L27.2697 20.4292C27.7421 20.8597 27.6951 21.6167 27.173 21.9853L26.3238 22.5849C25.8018 22.9535 25.0726 22.7445 24.8251 22.1553L24.0318 20.2671Z" fill="#333333"/>
</g>
<defs>
<clipPath id="clip0_475_15709">
<rect width="28" height="28" fill="white"/>
</clipPath>
</defs>
</svg>
