<svg width="36" height="36" viewBox="0 0 36 36" xmlns="http://www.w3.org/2000/svg">
<style>
  svg { color: #010101; }
  @media (prefers-color-scheme: dark) {
    svg { color: #ffffff; }
  }
</style>
<path d="M17.9329 26.2407C22.2837 26.2407 26.2267 28.011 29.0861 30.8704L25.1968 34.7596C24.8799 35.0765 24.368 35.0731 24.0255 34.7839C22.3791 33.3931 20.2491 32.5549 17.9329 32.5549C15.6159 32.5549 13.4896 33.3938 11.84 34.7854C11.4978 35.0741 10.9866 35.0771 10.67 34.7605L6.77985 30.8704C6.97298 30.6772 7.17148 30.4895 7.37534 30.3071C7.39143 30.291 7.40752 30.2803 7.41825 30.2695C7.58455 30.1247 7.74552 29.9798 7.91719 29.8404C8.07812 29.7062 8.23904 29.5828 8.39997 29.4595C8.43753 29.4326 8.46972 29.4058 8.50191 29.379C8.67894 29.2449 8.86136 29.1161 9.04375 28.9927C9.08667 28.9659 9.12957 28.9337 9.17249 28.9069C9.34952 28.7889 9.52656 28.6762 9.70895 28.5636C9.75187 28.5367 9.80015 28.5099 9.84307 28.4831C10.004 28.3865 10.165 28.2953 10.3259 28.2041C10.3634 28.1827 10.4064 28.1559 10.4493 28.1344C10.6317 28.0378 10.8141 27.9466 10.9965 27.8554C11.0662 27.8233 11.1306 27.791 11.2003 27.7589C11.3827 27.673 11.5598 27.5925 11.7421 27.5121C11.8119 27.4853 11.8817 27.4531 11.9514 27.4263C12.0855 27.3726 12.2196 27.319 12.3537 27.2707C12.4342 27.2439 12.5201 27.2117 12.6005 27.1795C12.7722 27.1151 12.9438 27.0561 13.1209 27.0025C13.2174 26.9703 13.314 26.9381 13.4106 26.9113C13.534 26.8737 13.6573 26.8362 13.7807 26.804C13.9309 26.7664 14.0758 26.7289 14.226 26.6913C14.3386 26.6645 14.4513 26.643 14.564 26.6162C14.6713 26.5894 14.7839 26.5679 14.8912 26.5465C15.0575 26.5143 15.2238 26.4821 15.3901 26.4553L15.3847 26.4499C16.2163 26.3158 17.0639 26.2407 17.9329 26.2407ZM10.0791 19.1379C10.8999 18.8589 11.7368 18.6175 12.5951 18.4244C12.8044 18.3815 13.0082 18.3385 13.2174 18.2956C13.2442 18.2902 13.2711 18.2795 13.2979 18.2795C13.4857 18.242 13.6681 18.2098 13.8505 18.1776C13.8934 18.1722 13.9363 18.1615 13.9792 18.1561C14.1455 18.1239 14.3172 18.1025 14.4835 18.0757C14.5371 18.0703 14.5908 18.0596 14.6444 18.0542C14.8 18.0327 14.961 18.0113 15.1165 17.9952C15.1756 17.9898 15.2399 17.9791 15.3043 17.9737C15.4545 17.9576 15.6047 17.9469 15.7549 17.9308C15.8246 17.9255 15.8944 17.9201 15.9642 17.9147C16.1144 17.904 16.2592 17.8932 16.4094 17.8825C16.4792 17.8772 16.5543 17.8664 16.624 17.8664C16.7796 17.8557 16.9298 17.8504 17.0853 17.845C17.1551 17.8396 17.2195 17.8396 17.2839 17.8396C17.4984 17.8289 17.7184 17.8289 17.933 17.8289H17.9437C18.1798 17.8289 18.4212 17.8342 18.6572 17.8396H18.7055C18.9361 17.845 19.1668 17.8557 19.3975 17.8718V17.8772C25.1999 18.2248 30.4615 20.6234 34.4581 24.3627C34.7851 24.6686 34.7841 25.183 34.4675 25.4996L30.5774 29.3897C27.3425 26.1495 22.8684 24.1431 17.9383 24.1431C17.3268 24.1431 16.7205 24.1753 16.1251 24.2343C16.0822 24.2396 16.0446 24.2504 16.0071 24.2504C15.7442 24.2826 15.4813 24.3148 15.2238 24.3523H15.2024C11.3667 24.9424 7.92791 26.7557 5.29923 29.3843L1.23747 25.3226C0.996364 25.0815 0.9319 24.7153 1.07616 24.4063L11.6775 1.70158C11.8773 1.27356 12.307 1 12.7793 1H18.5499L10.0791 19.1379ZM26.091 1C26.6828 1 27.0751 1.61357 26.8269 2.15079L20.3631 16.139C19.5692 16.0639 18.7645 16.0264 17.9544 16.0264V16.021C16.5167 16.021 15.1004 16.139 13.711 16.3643L20.8138 1H26.091Z" fill="currentColor"/>
</svg>
