<svg width="574" height="140" viewBox="0 0 574 140" fill="none" xmlns="http://www.w3.org/2000/svg">
<path d="M133.294 32.3428C169.154 32.3429 188.358 56.2501 183.851 93.0898H111.738C114.286 107.786 124.476 112.686 133.686 112.686C141.72 112.686 148.97 109.158 149.95 105.239H182.283C173.857 130.713 150.734 139.14 134.861 139.14C105.468 139.14 81.5607 123.071 81.5605 85.6436C81.5605 51.3512 103.9 32.3428 133.294 32.3428ZM281.348 32.3428C297.22 32.3429 306.626 37.83 313.484 44.1006L315.444 34.499H345.034V137.18H315.248L311.524 112.686H308.978C311.133 130.517 294.673 139.139 281.348 139.14C248.819 139.14 232.554 112.489 232.554 85.6436C232.554 58.9935 248.819 32.3428 281.348 32.3428ZM573.723 137.17H543.938L540.214 112.675H537.666C538.646 131.683 523.361 139.129 510.036 139.129C477.507 139.129 461.242 112.479 461.242 85.6328C461.242 58.9829 477.507 32.3331 510.036 32.333C525.909 32.333 535.315 37.8193 542.174 44.0898V0H573.919L573.723 137.17ZM224.566 0.196289L224.371 137.365L192.625 137.17L192.821 0L224.566 0.196289ZM420.719 32.3428C437.375 32.3428 453.248 42.5331 453.248 66.0479V137.18H421.503V75.0615C421.503 64.4801 414.84 60.3653 407.002 60.3652C399.751 60.3652 391.913 66.0477 387.798 71.7305V137.18H356.053V34.499L385.838 34.3027L389.562 58.7969H392.108C392.109 39.7894 407.394 32.3428 420.719 32.3428ZM31.7451 102.076H78.1875V136.956H0V5.86133L31.7451 5.66504V102.076ZM289.577 60.3652C274.88 60.3654 265.866 71.7308 265.866 85.6436C265.866 99.5562 274.881 110.922 289.577 110.922C304.47 110.922 313.288 99.5563 313.288 85.6436C313.288 71.7306 304.47 60.3652 289.577 60.3652ZM518.267 60.3545C503.57 60.3545 494.556 71.72 494.556 85.6328C494.556 99.5457 503.57 110.911 518.267 110.911C533.159 110.911 541.978 99.5457 541.978 85.6328C541.977 71.72 533.159 60.3545 518.267 60.3545ZM134.861 56.25C122.908 56.25 115.07 62.1287 112.326 73.4941H154.457V72.3184C154.457 62.5205 145.247 56.25 134.861 56.25Z" fill="#111111"/>
</svg>
