<svg width="32" height="32" viewBox="0 0 32 32" fill="none" xmlns="http://www.w3.org/2000/svg">
<style>
  path { fill: #010101; }
  @media (prefers-color-scheme: dark) {
    path { fill: #ffffff; }
  }
</style>
<path d="M16.3017 23.8091C20.2333 23.8091 23.7965 25.4089 26.3804 27.9928L22.8658 31.5073C22.5794 31.7938 22.1168 31.7907 21.8074 31.5293C20.3195 30.2725 18.3948 29.515 16.3017 29.515C14.2079 29.515 12.2864 30.2731 10.7958 31.5307C10.4865 31.7916 10.0245 31.7943 9.73841 31.5082L6.22305 27.9928C6.39757 27.8183 6.57695 27.6486 6.76117 27.4838C6.77571 27.4692 6.79025 27.4595 6.79995 27.4499C6.95023 27.319 7.09569 27.1881 7.25082 27.062C7.39625 26.9408 7.54167 26.8293 7.6871 26.7178C7.72103 26.6936 7.75012 26.6693 7.77921 26.6451C7.93919 26.5239 8.10403 26.4076 8.26886 26.2961C8.30764 26.2718 8.34641 26.2427 8.38519 26.2185C8.54517 26.1118 8.70515 26.01 8.86997 25.9082C8.90876 25.884 8.95239 25.8597 8.99117 25.8355C9.1366 25.7482 9.28205 25.6658 9.42748 25.5834C9.46142 25.564 9.5002 25.5398 9.53898 25.5204C9.70381 25.4332 9.86864 25.3507 10.0335 25.2683C10.0965 25.2392 10.1547 25.2101 10.2177 25.181C10.3825 25.1035 10.5425 25.0308 10.7073 24.958C10.7703 24.9338 10.8334 24.9047 10.8964 24.8805C11.0176 24.832 11.1388 24.7835 11.26 24.7399C11.3327 24.7157 11.4103 24.6866 11.483 24.6575C11.6381 24.5993 11.7932 24.546 11.9532 24.4975C12.0405 24.4684 12.1277 24.4393 12.215 24.4151C12.3265 24.3812 12.438 24.3472 12.5495 24.3181C12.6852 24.2842 12.8161 24.2503 12.9519 24.2163C13.0537 24.1921 13.1555 24.1727 13.2573 24.1484C13.3542 24.1242 13.4561 24.1048 13.553 24.0854C13.7033 24.0564 13.8536 24.0273 14.0038 24.003L13.999 23.9982C14.7504 23.877 15.5164 23.8091 16.3017 23.8091ZM9.20448 17.3905C9.9462 17.1385 10.7025 16.9203 11.4781 16.7458C11.6672 16.707 11.8514 16.6682 12.0405 16.6294C12.0647 16.6246 12.0889 16.6149 12.1132 16.6149C12.2829 16.581 12.4477 16.5519 12.6125 16.5228C12.6513 16.5179 12.6901 16.5082 12.7289 16.5034C12.8791 16.4743 13.0343 16.4549 13.1846 16.4307C13.233 16.4258 13.2815 16.4161 13.33 16.4113C13.4706 16.3919 13.616 16.3725 13.7566 16.3579C13.8099 16.3531 13.8681 16.3434 13.9263 16.3386C14.062 16.324 14.1978 16.3143 14.3335 16.2998C14.3965 16.2949 14.4596 16.2901 14.5226 16.2853C14.6583 16.2756 14.7892 16.2658 14.9249 16.2561C14.988 16.2513 15.0558 16.2416 15.1189 16.2416C15.2594 16.2319 15.3952 16.2271 15.5358 16.2222C15.5988 16.2174 15.657 16.2174 15.7152 16.2174C15.9091 16.2077 16.1078 16.2077 16.3017 16.2077H16.3114C16.5247 16.2077 16.7429 16.2125 16.9562 16.2174H16.9998C17.2083 16.2222 17.4167 16.2319 17.6252 16.2464V16.2513C22.8686 16.5655 27.6233 18.733 31.2349 22.112C31.5304 22.3885 31.5295 22.8533 31.2434 23.1394L27.7281 26.6548C24.8048 23.7267 20.7617 21.9136 16.3066 21.9136C15.7539 21.9136 15.2061 21.9427 14.668 21.996C14.6292 22.0008 14.5953 22.0106 14.5614 22.0106C14.3238 22.0396 14.0863 22.0687 13.8536 22.1027H13.8342C10.368 22.6359 7.2605 24.2745 4.88506 26.6499L1.21459 22.9794C0.996715 22.7616 0.93846 22.4307 1.06882 22.1515L10.6489 1.63399C10.8295 1.24721 11.2177 1 11.6446 1H16.8592L9.20448 17.3905ZM23.6738 1C24.2086 1 24.5632 1.55446 24.3388 2.03993L18.4978 14.6806C17.7803 14.6127 17.0532 14.5788 16.3211 14.5788V14.574C15.0219 14.574 13.7421 14.6806 12.4865 14.8842L18.905 1H23.6738Z"/>
</svg>
