<svg width="797" height="171" viewBox="0 0 797 171" fill="none" xmlns="http://www.w3.org/2000/svg">
<path d="M85.1628 126.946C107.044 126.946 126.876 135.85 141.256 150.23L121.696 169.791C120.102 171.385 117.527 171.368 115.805 169.913C107.524 162.918 96.8118 158.702 85.1628 158.702C73.5096 158.702 62.8152 162.922 54.519 169.921C52.7979 171.373 50.2266 171.388 48.6343 169.795L29.0693 150.23C30.0406 149.259 31.0389 148.315 32.0642 147.397C32.1451 147.316 32.2261 147.262 32.28 147.209C33.1164 146.48 33.926 145.751 34.7894 145.05C35.5988 144.375 36.4081 143.755 37.2175 143.134C37.4064 142.999 37.5683 142.864 37.7302 142.73C38.6205 142.055 39.538 141.408 40.4553 140.787C40.6712 140.652 40.887 140.49 41.1028 140.355C41.9932 139.762 42.8836 139.195 43.8009 138.628C44.0167 138.494 44.2596 138.359 44.4754 138.224C45.2849 137.738 46.0943 137.279 46.9038 136.821C47.0926 136.713 47.3085 136.578 47.5243 136.47C48.4417 135.984 49.359 135.526 50.2764 135.067C50.6271 134.905 50.951 134.743 51.3017 134.581C52.219 134.15 53.1094 133.745 54.0267 133.34C54.3774 133.205 54.7283 133.043 55.0791 132.909C55.7536 132.639 56.4282 132.369 57.1027 132.126C57.5074 131.991 57.9391 131.829 58.3438 131.667C59.2072 131.344 60.0705 131.047 60.9609 130.777C61.4465 130.615 61.9322 130.453 62.4178 130.318C63.0384 130.129 63.659 129.941 64.2795 129.779C65.035 129.59 65.7635 129.401 66.5189 129.212C67.0855 129.077 67.6522 128.969 68.2188 128.834C68.7584 128.699 69.3251 128.592 69.8647 128.484C70.7011 128.322 71.5375 128.16 72.3738 128.025L72.3468 127.998C76.5288 127.323 80.7919 126.946 85.1628 126.946ZM45.6626 91.2228C49.7907 89.8197 53.9998 88.6056 58.3167 87.6343C59.369 87.4185 60.3942 87.2025 61.4465 86.9867C61.5813 86.9597 61.7163 86.9059 61.8512 86.9058C62.7956 86.717 63.713 86.5551 64.6303 86.3932C64.8462 86.3662 65.062 86.3122 65.2778 86.2853C66.1142 86.1234 66.9776 86.0154 67.814 85.8805C68.0838 85.8535 68.3537 85.7996 68.6235 85.7726C69.406 85.6647 70.2155 85.5567 70.9979 85.4758C71.2947 85.4488 71.6185 85.3948 71.9422 85.3679C72.6976 85.2869 73.4531 85.233 74.2085 85.152C74.5592 85.1251 74.9101 85.0982 75.2609 85.0712C76.0163 85.0172 76.7448 84.9631 77.5003 84.9091C77.851 84.8822 78.2288 84.8283 78.5796 84.8283C79.362 84.7744 80.1174 84.7474 80.8998 84.7204C81.2505 84.6934 81.5745 84.6933 81.8982 84.6933C82.9774 84.6394 84.0837 84.6394 85.1629 84.6394H85.2169C86.404 84.6394 87.6182 84.6663 88.8053 84.6933H89.048C90.2082 84.7203 91.3684 84.7742 92.5286 84.8552V84.8823C121.711 86.6306 148.174 98.6942 168.275 117.501C169.919 119.039 169.914 121.626 168.322 123.219L148.757 142.784C132.488 126.487 109.985 116.396 85.1898 116.396C82.114 116.396 79.0651 116.558 76.0702 116.855C75.8544 116.882 75.6655 116.936 75.4767 116.936C74.1546 117.098 72.8326 117.26 71.5375 117.448H71.4296C52.1381 120.416 34.8433 129.536 21.6226 142.756L1.19432 122.328C-0.0182851 121.116 -0.342504 119.274 0.383022 117.72L53.7014 3.52852C54.7065 1.37584 56.8673 0 59.2431 0H88.2656L45.6626 91.2228ZM126.193 0C129.169 2.63959e-06 131.143 3.08588 129.894 5.78782L97.3852 76.1403C93.3921 75.7626 89.3449 75.5739 85.2709 75.5739V75.5468C78.0399 75.5468 70.9168 76.1403 63.9287 77.2735L99.6517 0H126.193Z" fill="#111111"/>
<path d="M355.767 48.2725C391.627 48.2726 410.83 72.1798 406.323 109.02H334.211C336.758 123.716 346.948 128.615 356.158 128.615C364.192 128.615 371.443 125.088 372.423 121.169H404.756C396.33 146.643 373.207 155.069 357.334 155.069C327.94 155.069 304.033 139.001 304.033 101.573C304.033 67.2809 326.373 48.2725 355.767 48.2725ZM503.82 48.2725C519.693 48.2726 529.099 53.7597 535.957 60.0303L537.917 50.4287H567.507V153.109H537.721L533.997 128.615H531.45C533.605 146.447 517.145 155.069 503.82 155.069C471.291 155.069 455.026 128.419 455.026 101.573C455.026 74.9232 471.291 48.2725 503.82 48.2725ZM796.195 153.1H766.41L762.687 128.604H760.139C761.118 147.612 745.834 155.059 732.509 155.059C699.98 155.058 683.715 128.408 683.715 101.562C683.715 74.9126 699.98 48.2628 732.509 48.2627C748.381 48.2627 757.788 53.7489 764.646 60.0195V15.9297H796.392L796.195 153.1ZM447.039 16.126L446.844 153.295L415.098 153.1L415.294 15.9297L447.039 16.126ZM643.191 48.2725C659.848 48.2725 675.721 58.4628 675.721 81.9775V153.109H643.976V90.9912C643.976 80.4098 637.313 76.295 629.475 76.2949C622.224 76.2949 614.386 81.9774 610.271 87.6602V153.109H578.525V50.4287L608.311 50.2324L612.034 74.7266H614.581C614.581 55.7191 629.866 48.2725 643.191 48.2725ZM254.218 118.006H300.66V152.886H222.473V21.791L254.218 21.5947V118.006ZM512.05 76.2949C497.353 76.2951 488.339 87.6604 488.339 101.573C488.339 115.486 497.353 126.851 512.05 126.852C526.943 126.852 535.761 115.486 535.761 101.573C535.761 87.6603 526.943 76.2949 512.05 76.2949ZM740.739 76.2842C726.042 76.2842 717.028 87.6497 717.028 101.562C717.028 115.475 726.042 126.841 740.739 126.841C755.632 126.841 764.45 115.475 764.45 101.562C764.45 87.6497 755.632 76.2842 740.739 76.2842ZM357.334 72.1797C345.381 72.1797 337.542 78.0584 334.799 89.4238H376.93V88.248C376.93 78.4502 367.72 72.1797 357.334 72.1797Z" fill="#111111"/>
</svg>
