<svg width="97" height="22" viewBox="0 0 97 22" fill="none" xmlns="http://www.w3.org/2000/svg">
<path d="M15.8474 15.8447L1.81128 19.9199L6.3396 5.88379L19.9226 1.80859L15.8474 15.8447ZM10.8669 8.60059C9.61663 8.60059 8.60331 9.61395 8.60327 10.8643C8.60327 12.1146 9.6166 13.1279 10.8669 13.1279C12.1172 13.1279 13.1306 12.1146 13.1306 10.8643C13.1306 9.61399 12.1172 8.60066 10.8669 8.60059Z" fill="#038561"/>
<path d="M78.912 12.0599V18.4473H82.0687V11.3694C82.0687 8.50861 81.2055 6.28906 77.7776 6.28906C76.0512 6.28906 74.8428 7.05357 74.2016 8.31132H74.1276L74.1523 6.51102H70.9956V18.4473H74.1523V12.5038C74.1523 10.5062 74.8182 8.87854 76.7664 8.87854C78.5914 8.87854 78.912 10.2843 78.912 12.0599Z" fill="#038561"/>
<path d="M65.2091 17.0662L65.2584 18.4473H68.2918V11.616C68.2918 9.59373 67.8479 8.50861 66.9847 7.67012C66.0969 6.83162 64.8885 6.28906 62.7676 6.28906C60.696 6.28906 59.019 7.00425 58.1065 7.54681L59.0684 9.56907C59.5862 9.17448 60.8933 8.5826 62.4717 8.5826C64.124 8.5826 65.1351 9.29779 65.1351 10.8268V11.1474L62.2744 11.3447C59.8082 11.5173 57.3667 12.4791 57.3667 14.97C57.3667 17.4608 59.241 18.7185 61.5592 18.7185C63.3348 18.7185 64.7159 17.9294 65.2091 17.0662ZM63.0142 13.1943L65.1598 13.071V15.2659C64.7405 15.8578 63.8281 16.573 62.595 16.573C61.2879 16.573 60.5234 15.8825 60.5234 14.8713C60.5234 13.8602 61.3372 13.293 63.0142 13.1943Z" fill="#038561"/>
<path d="M41.0691 13.4903H49.8486C49.8486 13.4903 49.8979 12.5038 49.8979 11.8873C49.8979 8.70591 47.6784 6.28906 44.0038 6.28906C40.6005 6.28906 37.8137 8.85388 37.8137 12.6764C37.8137 16.5237 40.4772 18.7185 44.0778 18.7185C46.9879 18.7185 48.7882 17.4855 49.454 16.7949L48.2209 15.0933C47.6537 15.5865 46.2234 16.3017 44.6203 16.3017C42.82 16.3017 41.365 15.3892 41.0691 13.4903ZM43.9791 8.63192C46.1987 8.63192 46.6919 10.1363 46.7412 11.4434H41.0197C41.1184 9.93899 42.1049 8.63192 43.9791 8.63192Z" fill="#038561"/>
<path d="M30.9524 3.01953V15.7812H36.8958V18.4447H27.771V3.01953L30.9524 3.01953Z" fill="#038561"/>
<path d="M55.2487 3.01953V18.4447H52.1167V3.01953L55.2487 3.01953Z" fill="#038561"/>
<path fill-rule="evenodd" clip-rule="evenodd" d="M96.9998 3.01953V18.4447H94.0158L93.9911 16.5704H93.9171C92.9553 18.0994 91.4756 18.716 89.8233 18.716C86.3213 18.716 84.1758 16.0032 84.1758 12.4519C84.1758 9.07327 86.42 6.28651 90.0453 6.28651C91.6483 6.28651 93.0047 6.87839 93.8431 8.16079H93.8925C93.8678 7.61824 93.8678 6.97703 93.8678 6.13854V3.01953L96.9998 3.01953ZM87.3818 12.4519C87.3818 14.5235 88.6642 16.1512 90.7111 16.1512C92.6101 16.1512 93.9418 14.6961 93.9418 12.4519C93.9418 10.4543 92.6347 8.70335 90.6125 8.70335C88.5656 8.70335 87.3818 10.4543 87.3818 12.4519Z" fill="#038561"/>
</svg>
